<svg xmlns="http://www.w3.org/2000/svg" width="260" height="258" version="1.2" viewBox="0 0 194.88 193.5"><defs><clipPath id="a"><path d="M9.46 8H135v85H9.46Zm0 0"/></clipPath><clipPath id="b"><path d="M9.46 96H14v4H9.46Zm0 0"/></clipPath></defs><path d="M179.36 73.86a94 94 0 0 1 2.511 21.835 94.2 94.2 0 0 1-2.601 21.825 18 18 0 0 1-.961 2.953 18.3 18.3 0 0 1-3.317 5.23 18.5 18.5 0 0 1-4.847 3.848q-1.365.751-2.836 1.262a18.3 18.3 0 0 1-3.008.773 18.7 18.7 0 0 1-3.094.258h-28.328v28.37c0 8.06-5.234 15.954-14.707 18.188a93.8 93.8 0 0 1-21.574 2.508q-10.934-.001-21.575-2.504c-9.457-2.226-14.73-10.086-14.73-18.191v-46.133a18.776 18.776 0 0 1 .797-5.395q.269-.872.613-1.714.35-.846.781-1.649c.286-.539.598-1.058.938-1.566.336-.504.7-.992 1.082-1.465q.58-.705 1.223-1.352c.43-.43.882-.84 1.351-1.222q.704-.58 1.461-1.09a20 20 0 0 1 1.563-.938 18.6 18.6 0 0 1 3.363-1.39q.871-.27 1.765-.446a18.7 18.7 0 0 1 3.622-.355h35.464q.914 0 1.82-.09a19 19 0 0 0 1.802-.27 18.3 18.3 0 0 0 5.128-1.835q.805-.434 1.563-.938a19 19 0 0 0 2.812-2.312q.644-.644 1.223-1.352a18.2 18.2 0 0 0 2.02-3.027 18 18 0 0 0 1.394-3.367q.264-.873.442-1.77a18.5 18.5 0 0 0 .359-3.625V59.156h28.328q1.583.001 3.14.266a18.6 18.6 0 0 1 5.926 2.098q1.378.772 2.61 1.77 1.23.996 2.273 2.187a18.57 18.57 0 0 1 4.203 8.382m0 0" style="stroke:none;fill-rule:nonzero;fill:#f0c020;fill-opacity:1"/><path d="M132.879 30.79v46.124q0 .916-.09 1.824a18.885 18.885 0 0 1-.71 3.574 18 18 0 0 1-.614 1.715 19 19 0 0 1-.778 1.649c-.289.539-.601 1.058-.937 1.566q-.508.756-1.086 1.465-.58.705-1.223 1.352-.645.644-1.347 1.222-.71.581-1.465 1.086-.757.51-1.563.942a18.6 18.6 0 0 1-3.359 1.39 17 17 0 0 1-1.77.446 18.5 18.5 0 0 1-3.62.355H78.851q-.914 0-1.82.09a18.7 18.7 0 0 0-5.282 1.324q-.842.352-1.648.781-.804.428-1.559.938a18.2 18.2 0 0 0-2.813 2.312q-.647.644-1.222 1.352-.581.704-1.086 1.46c-.34.509-.652 1.028-.938 1.567a18 18 0 0 0-.777 1.649 18.908 18.908 0 0 0-1.059 3.484 18.8 18.8 0 0 0-.355 3.625v17.758H31.961q-1.559.006-3.094-.258a18.52 18.52 0 0 1-12.566-8.348 18.5 18.5 0 0 1-2.403-5.707A94.2 94.2 0 0 1 11.297 95.5q0-11.166 2.601-22.027a18.6 18.6 0 0 1 4.278-8.18q1.042-1.159 2.265-2.125a18.5 18.5 0 0 1 5.422-2.98q1.469-.511 3.004-.77a18 18 0 0 1 3.094-.262h28.332V30.79c0-1.059.086-2.105.266-3.148a18.467 18.467 0 0 1 2.094-5.93 19 19 0 0 1 1.765-2.613 18 18 0 0 1 2.184-2.278q1.19-1.049 2.539-1.875a19 19 0 0 1 2.816-1.418q1.469-.584 3.016-.918a94 94 0 0 1 21.566-2.515q10.929 0 21.57 2.496c9.41 2.21 14.77 9.996 14.77 18.2m0 0" style="stroke:none;fill-rule:nonzero;fill:#72c1e8;fill-opacity:1"/><path d="M86.875 33.957q.221.533.332 1.09.112.563.113 1.137-.001.569-.113 1.132a6 6 0 0 1-.328 1.09 6 6 0 0 1-.535 1.004c-.215.317-.453.61-.723.88q-.404.404-.879.722a5.77 5.77 0 0 1-5.441.539 5.6 5.6 0 0 1-1.004-.535 6 6 0 0 1-.879-.723 5.6 5.6 0 0 1-.723-.883 5.6 5.6 0 0 1-.535-1.004 5.773 5.773 0 0 1-.004-4.445c.149-.352.324-.688.535-1.004q.321-.475.723-.879.405-.406.879-.723a5.5 5.5 0 0 1 1.004-.539 6 6 0 0 1 1.086-.332q.564-.11 1.133-.109a5.656 5.656 0 0 1 2.223.441 5.7 5.7 0 0 1 1.878 1.258 5.8 5.8 0 0 1 1.258 1.883M117.469 154.797q.001.575-.11 1.137a5.6 5.6 0 0 1-.332 1.086 5.766 5.766 0 0 1-1.258 1.887 5.8 5.8 0 0 1-1.878 1.257 5.76 5.76 0 0 1-2.219.441 5.77 5.77 0 0 1-4.824-2.578 6 6 0 0 1-.535-1.007 5.6 5.6 0 0 1-.442-2.223q-.001-.57.11-1.133a5.9 5.9 0 0 1 .867-2.094q.317-.475.722-.879a5.8 5.8 0 0 1 1.88-1.257 5.77 5.77 0 0 1 2.223-.441 5.76 5.76 0 0 1 4.097 1.698 5.8 5.8 0 0 1 1.257 1.883 5.7 5.7 0 0 1 .442 2.223m0 0" style="stroke:none;fill-rule:nonzero;fill:#fff;fill-opacity:1"/><path d="M125.55 162.332q-.344 0-.66-.129a1.8 1.8 0 0 1-.558-.375 1.7 1.7 0 0 1-.375-.562 1.7 1.7 0 0 1-.133-.66v-3.352c0-.227.047-.45.133-.66q.129-.318.375-.559.241-.246.559-.375.315-.134.66-.133c.226 0 .449.043.66.133q.316.129.559.375.24.241.375.559c.085.21.128.433.128.66v3.351a1.73 1.73 0 0 1-.503 1.223q-.241.24-.56.375c-.21.086-.433.129-.66.129m0-10.258q-.344 0-.66-.129a1.8 1.8 0 0 1-.558-.375 1.732 1.732 0 0 1-.508-1.223v-28.171a1.73 1.73 0 0 1 1.727-1.727h35.652a7.14 7.14 0 0 0 4.465-1.543 7.2 7.2 0 0 0 1.602-1.781 7 7 0 0 0 .921-2.215 83.2 83.2 0 0 0 2.29-19.418 83.2 83.2 0 0 0-2.29-19.422 7.1 7.1 0 0 0-.925-2.207 7 7 0 0 0-1.602-1.773 7 7 0 0 0-2.098-1.149 7 7 0 0 0-2.355-.386 1.73 1.73 0 0 1-1.727-1.727q.002-.344.133-.664.129-.316.375-.559.241-.24.559-.375.315-.128.66-.128c4.637 0 9.101 2.925 10.422 8.543a86.7 86.7 0 0 1 2.297 20.03 87 87 0 0 1-2.375 20.024 11 11 0 0 1-.547 1.696q-.346.823-.82 1.578-.478.755-1.075 1.422-.598.66-1.297 1.218-.7.557-1.484.985-.78.428-1.625.722a10.756 10.756 0 0 1-3.5.582h-33.93v26.446q0 .344-.132.66a1.7 1.7 0 0 1-.934.937c-.211.086-.434.13-.66.13m0 0" style="stroke:none;fill-rule:nonzero;fill:#f9e5af;fill-opacity:1"/><path d="M50.637 123.902c-.227 0-.45-.043-.66-.132a1.757 1.757 0 0 1-.934-.934 1.7 1.7 0 0 1-.129-.66v-3.094a1.73 1.73 0 0 1 .504-1.223q.241-.24.559-.375a1.74 1.74 0 0 1 1.32 0q.317.135.558.375a1.7 1.7 0 0 1 .504 1.223v3.094q0 .344-.129.66c-.09.21-.21.398-.375.559q-.24.246-.558.375-.316.134-.66.132m-.051-10.004a1.7 1.7 0 0 1-.648-.175 1.72 1.72 0 0 1-.958-1.66 30.5 30.5 0 0 1 .915-5.547q.358-1.364.84-2.688.486-1.32 1.09-2.594.603-1.271 1.323-2.48c.48-.809 1-1.59 1.551-2.348a31 31 0 0 1 1.766-2.191 29.74 29.74 0 0 1 4.102-3.836 30 30 0 0 1 2.3-1.617q1.19-.751 2.446-1.39a29 29 0 0 1 2.558-1.157 31 31 0 0 1 2.66-.914c.899-.262 1.813-.48 2.73-.656q1.383-.269 2.782-.403c.934-.09 1.871-.133 2.809-.137h35.464q.71 0 1.403-.14.69-.135 1.347-.41.652-.271 1.239-.664a7.2 7.2 0 0 0 1.98-1.98q.394-.592.664-1.247a7.3 7.3 0 0 0 .551-2.75V30.79a7.3 7.3 0 0 0-.39-2.363 7.1 7.1 0 0 0-1.153-2.102 7 7 0 0 0-1.777-1.605 7.1 7.1 0 0 0-2.207-.926l-.465-.11a1.7 1.7 0 0 1-.606-.285 1.7 1.7 0 0 1-.683-1.117 1.74 1.74 0 0 1 .297-1.277 1.72 1.72 0 0 1 1.113-.7q.334-.058.668.016l.46.11c.583.133 1.145.316 1.696.547q.822.345 1.574.82.756.48 1.418 1.078c.446.398.848.832 1.22 1.297q.55.705.983 1.484.428.786.72 1.63a10.6 10.6 0 0 1 .577 3.503v46.125a10.55 10.55 0 0 1-.812 4.07 10.7 10.7 0 0 1-2.301 3.454q-.742.739-1.613 1.32-.868.586-1.836.984a10.5 10.5 0 0 1-4.067.813H78.852q-1.243.004-2.485.125-1.236.117-2.46.351-1.222.235-2.419.586a26.5 26.5 0 0 0-4.617 1.828q-1.108.57-2.16 1.23a26.5 26.5 0 0 0-7.227 6.766q-.737 1.002-1.375 2.075a26.908 26.908 0 0 0-2.137 4.492 26 26 0 0 0-.742 2.375 26.33 26.33 0 0 0-.809 4.906 1.73 1.73 0 0 1-.585 1.188 1.8 1.8 0 0 1-.582.335 1.7 1.7 0 0 1-.668.086m0 0" style="stroke:none;fill-rule:nonzero;fill:#c5e5ff;fill-opacity:1"/><path d="M180.945 73.07a20.36 20.36 0 0 0-4.68-8.933 20.5 20.5 0 0 0-2.476-2.32 20 20 0 0 0-2.824-1.876 20.3 20.3 0 0 0-3.094-1.382 21 21 0 0 0-3.285-.844 20 20 0 0 0-3.379-.285h-26.613v-7.992a1.73 1.73 0 0 0-.535-1.153 1.8 1.8 0 0 0-.543-.347 1.8 1.8 0 0 0-.637-.126q-.328 0-.633.122a1.723 1.723 0 0 0-1.094 1.492q-.005.006-.004.011v27.481c-.003.55-.03 1.102-.09 1.648a16.5 16.5 0 0 1-.652 3.239 16.7 16.7 0 0 1-1.265 3.047 17 17 0 0 1-1.836 2.742 16.5 16.5 0 0 1-3.657 3.32c-.457.309-.925.594-1.414.852a16.2 16.2 0 0 1-3.043 1.27q-.79.24-1.597.405-.814.165-1.633.246c-.547.06-1.098.086-1.648.09H78.852a20 20 0 0 0-3.961.387 20 20 0 0 0-1.93.484 19.8 19.8 0 0 0-3.676 1.52 20.4 20.4 0 0 0-3.305 2.215 20 20 0 0 0-2.812 2.812q-.632.775-1.188 1.602a20.54 20.54 0 0 0-1.875 3.516 20.57 20.57 0 0 0-1.152 3.809 20 20 0 0 0-.289 1.972 20 20 0 0 0-.098 1.992v16.031H31.965a17 17 0 0 1-2.809-.226q-1.395-.231-2.73-.696c-.89-.304-1.75-.687-2.578-1.14a16.8 16.8 0 0 1-4.403-3.489 16.7 16.7 0 0 1-3.867-7.433 93 93 0 0 1-2.082-12.274 1.72 1.72 0 0 0-.629-1.164 1.7 1.7 0 0 0-1.265-.379 1.72 1.72 0 0 0-1.165.63q-.218.263-.312.593-.1.333-.066.672a97 97 0 0 0 2.16 12.715q.39 1.659 1.05 3.23a21 21 0 0 0 1.575 3.008q.917 1.435 2.054 2.7a20.5 20.5 0 0 0 2.477 2.323 20 20 0 0 0 2.824 1.875 20 20 0 0 0 3.098 1.38q1.61.562 3.285.843a20 20 0 0 0 3.383.285H58.57v26.64q.001 1.736.29 3.435.293 1.706.867 3.335.573 1.635 1.418 3.141a20.2 20.2 0 0 0 4.308 5.344 20.236 20.236 0 0 0 9.129 4.61c3.227.519 19.754 5.503 44.133-.028q1.675-.374 3.27-1.024a20 20 0 0 0 3.05-1.562 20 20 0 0 0 2.742-2.05 20.3 20.3 0 0 0 4.274-5.333 21 21 0 0 0 1.406-3.129q.567-1.622.86-3.32.286-1.695.288-3.418v-26.64h8.282a1.73 1.73 0 0 0 1.593-1.067 1.763 1.763 0 0 0 0-1.324 1.757 1.757 0 0 0-.934-.934 1.7 1.7 0 0 0-.66-.129H96.583a1.72 1.72 0 0 0-1.219.504q-.241.241-.37.559c-.09.215-.134.433-.134.664 0 .226.043.449.133.66q.13.316.371.559c.164.164.348.285.563.375.21.085.43.132.656.132h34.57v26.64c.004.966-.074 1.919-.23 2.868q-.242 1.423-.719 2.781-.48 1.362-1.183 2.621a16.88 16.88 0 0 1-5.922 6.145 16.903 16.903 0 0 1-5.324 2.094 92.5 92.5 0 0 1-21.18 2.453q-10.728-.002-21.18-2.445c-8.727-2.075-13.398-9.16-13.398-16.516v-46.129c0-.55.03-1.102.086-1.648a16.5 16.5 0 0 1 .652-3.239 16.7 16.7 0 0 1 1.266-3.047q.39-.731.851-1.418.459-.687.98-1.328.529-.637 1.11-1.222.585-.587 1.223-1.11.637-.526 1.328-.988.687-.458 1.414-.852a17 17 0 0 1 3.043-1.265 16 16 0 0 1 1.601-.406q.808-.165 1.633-.246a17 17 0 0 1 1.649-.086h35.468c.664 0 1.325-.036 1.989-.098q.99-.1 1.968-.293a22 22 0 0 0 1.93-.484 19.985 19.985 0 0 0 3.672-1.527 19 19 0 0 0 1.707-1.024 20.6 20.6 0 0 0 3.074-2.528q.703-.702 1.336-1.476.633-.77 1.184-1.598.554-.832 1.023-1.71a20.298 20.298 0 0 0 2.3-7.582q.1-.997.099-1.993V60.883h26.605c.95-.004 1.89.07 2.828.23q1.406.234 2.746.703 1.348.47 2.59 1.16 1.247.688 2.36 1.579a17 17 0 0 1 2.054 1.953q.95 1.065 1.7 2.277a16.6 16.6 0 0 1 2.136 5.238q.037.118.055.235c3.508 14.918 3.05 30.734-.09 42.867a16.7 16.7 0 0 1-2.164 5.188q-.755 1.2-1.7 2.25a16.763 16.763 0 0 1-4.402 3.492 16.9 16.9 0 0 1-5.308 1.836q-1.395.23-2.809.226h-4.527a1.72 1.72 0 0 0-1.219.504q-.241.241-.371.559c-.09.215-.133.433-.133.664 0 .226.043.449.133.66q.13.316.371.559c.164.164.348.285.563.375.21.085.43.132.656.132h4.527c1.133 0 2.262-.093 3.379-.285a20 20 0 0 0 3.285-.844 20 20 0 0 0 3.102-1.379 20.4 20.4 0 0 0 2.828-1.878 20.5 20.5 0 0 0 2.473-2.325 20.183 20.183 0 0 0 3.625-5.715c.44-1.05.792-2.124 1.05-3.23 4.29-18.094 2.696-30.156 0-44.844m0 0" style="stroke:none;fill-rule:nonzero;fill:#000;fill-opacity:1"/><path d="M151.508 131.844c0 .226-.043.449-.133.66q-.13.316-.371.559a1.74 1.74 0 0 1-1.219.507 1.73 1.73 0 0 1-1.726-1.726q0-.344.132-.664.129-.318.375-.559.241-.24.559-.375.315-.129.66-.129.339 0 .66.13.315.134.559.374.241.241.371.559c.09.215.133.433.133.664M132.879 40.805q-.344 0-.664.129-.318.128-.559.375-.246.24-.375.558-.134.316-.133.66-.005.345.13.66.129.323.37.563.241.247.559.375a1.729 1.729 0 0 0 1.883-.371 1.729 1.729 0 0 0 0-2.437 1.732 1.732 0 0 0-1.21-.512m0 0" style="stroke:none;fill-rule:nonzero;fill:#000;fill-opacity:1"/><g clip-path="url(#a)"><path d="M11.39 92.969a1.72 1.72 0 0 0 1.188-.477 1.714 1.714 0 0 0 .535-1.16v-.016a93 93 0 0 1 2.465-17.445q.318-1.377.863-2.683a16.7 16.7 0 0 1 3.004-4.754 16.5 16.5 0 0 1 2.051-1.93 16.645 16.645 0 0 1 4.926-2.703q1.334-.463 2.734-.696 1.393-.228 2.809-.222h64.617a1.73 1.73 0 0 0 1.727-1.727q.001-.344-.133-.66a1.7 1.7 0 0 0-.934-.937 1.7 1.7 0 0 0-.66-.13H62.02V30.794a16.75 16.75 0 0 1 3.734-10.637 16.682 16.682 0 0 1 9.617-5.867c14.637-3.453 29.973-3.101 42.48.016a16.4 16.4 0 0 1 2.739.828q1.335.532 2.555 1.281a16.785 16.785 0 0 1 8.004 14.375v4.836c0 .227.046.45.132.66q.135.318.375.559a1.723 1.723 0 0 0 1.219.504 1.73 1.73 0 0 0 1.223-.504q.24-.241.375-.559c.086-.21.132-.433.132-.66l-.007-4.836c0-8.953-5.868-17.496-16.098-19.883a95.8 95.8 0 0 0-21.96-2.531 96 96 0 0 0-21.962 2.55 20.416 20.416 0 0 0-6.363 2.563 20.5 20.5 0 0 0-5.145 4.54 20.4 20.4 0 0 0-1.925 2.855 20.4 20.4 0 0 0-1.415 3.14 19.6 19.6 0 0 0-.867 3.332 20 20 0 0 0-.293 3.434v26.637H31.965c-8.852 0-17.41 5.793-19.852 16.086a97 97 0 0 0-2.445 17.652 1.7 1.7 0 0 0 .477 1.27q.242.258.566.394.328.14.68.14m0 0" style="stroke:none;fill-rule:nonzero;fill:#000;fill-opacity:1"/></g><g clip-path="url(#b)"><path d="M11.379 99.875q.34-.012.652-.152a1.7 1.7 0 0 0 .906-.961 1.75 1.75 0 0 0-.027-1.325 1.7 1.7 0 0 0-.39-.55 1.7 1.7 0 0 0-1.239-.465q-.345.007-.656.148-.316.14-.55.39a1.7 1.7 0 0 0-.36.571 1.716 1.716 0 0 0 .04 1.32c.089.212.222.395.386.551q.253.236.57.36.322.121.668.113m0 0" style="stroke:none;fill-rule:nonzero;fill:#000;fill-opacity:1"/></g><path d="M73.977 36.203q-.001.743.144 1.469.142.73.426 1.414.286.684.695 1.305.416.614.938 1.14c.347.352.73.664 1.14.938s.844.508 1.301.695a7.4 7.4 0 0 0 2.879.574q.743 0 1.469-.144a7.7 7.7 0 0 0 1.41-.43c.457-.187.89-.422 1.3-.695.41-.278.794-.59 1.141-.938q.521-.525.938-1.144.409-.615.695-1.301.28-.687.426-1.414a7.4 7.4 0 0 0 .144-1.469 7.5 7.5 0 0 0-.574-2.883 7.483 7.483 0 0 0-4.07-4.078 7.47 7.47 0 0 0-4.348-.426 7 7 0 0 0-1.41.43q-.685.284-1.3.695a7.5 7.5 0 0 0-2.075 2.079c-.273.41-.508.843-.695 1.3a7.5 7.5 0 0 0-.574 2.883m11.597 0a4.2 4.2 0 0 1-.308 1.563 4.1 4.1 0 0 1-1.504 1.832 4 4 0 0 1-.703.375 4.03 4.03 0 0 1-2.356.234 4.1 4.1 0 0 1-2.086-1.117 4.05 4.05 0 0 1-.883-1.324A4.4 4.4 0 0 1 77.5 37a4 4 0 0 1-.078-.797q0-.404.078-.797c.055-.261.133-.52.234-.765.102-.246.227-.485.375-.707a4.066 4.066 0 0 1 1.125-1.125q.333-.224.707-.375a4 4 0 0 1 1.559-.313q.4 0 .793.078.398.082.766.235c.246.101.48.23.703.379q.335.221.617.507.286.283.508.617.222.335.375.704.157.374.234.765c.05.266.078.528.078.797M119.195 154.8q-.001-.741-.144-1.472a7.56 7.56 0 0 0-2.059-3.855 7.5 7.5 0 0 0-2.441-1.633 7.2 7.2 0 0 0-1.414-.43 7.4 7.4 0 0 0-1.465-.144q-.743 0-1.469.144a7.5 7.5 0 0 0-1.414.426 7.7 7.7 0 0 0-1.3.7q-.616.41-1.137.937a7 7 0 0 0-.938 1.14c-.273.41-.508.844-.695 1.301a7.8 7.8 0 0 0-.43 1.414 7.7 7.7 0 0 0-.144 1.469q.001.745.144 1.473.147.727.43 1.414c.187.457.422.89.695 1.3a7.5 7.5 0 0 0 3.375 2.774 7.2 7.2 0 0 0 1.414.43q.725.145 1.469.144.738 0 1.465-.144a7.7 7.7 0 0 0 1.41-.43q.685-.287 1.3-.696.615-.416 1.141-.937.523-.526.934-1.14.415-.621.695-1.305.288-.685.43-1.41.147-.729.148-1.47m-11.601 0a4.2 4.2 0 0 1 .308-1.562q.157-.374.38-.707.221-.335.507-.617.283-.286.617-.508a4.02 4.02 0 0 1 1.469-.61c.262-.054.527-.077.793-.077a4.107 4.107 0 0 1 1.563.309c.246.1.48.23.703.378q.335.222.617.508.286.283.508.617.222.333.375.707.157.368.234.766.077.393.078.793a4.2 4.2 0 0 1-.308 1.562q-.158.375-.38.707-.221.335-.507.618-.283.286-.617.507a4.02 4.02 0 0 1-1.469.61 4 4 0 0 1-.793.078q-.405.001-.797-.078a4 4 0 0 1-.766-.23 4.4 4.4 0 0 1-.703-.38 4.066 4.066 0 0 1-1.125-1.125 4.238 4.238 0 0 1-.61-1.473 4 4 0 0 1-.077-.792m0 0" style="stroke:none;fill-rule:nonzero;fill:#000;fill-opacity:1"/></svg>