<svg xmlns="http://www.w3.org/2000/svg" width="260" height="258" version="1.2" viewBox="0 0 194.88 193.5"><path d="M64.938 7.27a4.88 4.88 0 0 0-2.981 1.218 6.83 6.83 0 0 0-3.945-.824 6.8 6.8 0 0 0-1.977.496 6.7 6.7 0 0 0-1.746 1.055 5.3 5.3 0 0 0-1.555-.274 5.25 5.25 0 0 0-4.168 1.918 9 9 0 0 0-4.457.192 9.085 9.085 0 0 0-3.82 2.305c-6.09-.727-7.86 3.472-5.723 7.43q-.35.377-.613.812a5.1 5.1 0 0 0-.691 1.902q-.078.505-.051 1.016.023.51.152 1.004c.082.332.2.648.344.957q.221.462.531.867c.207.273.434.523.692.746a6 6 0 0 0-.325 1.844q-.021.948.25 1.855.27.91.801 1.691.535.786 1.282 1.368a5.6 5.6 0 0 0-.067 1.78 5.7 5.7 0 0 0 1.469 3.2q.608.664 1.394 1.11.064 1.096.414 2.14.352 1.042.973 1.95a8 8 0 0 0 3.3 2.785q.179 1.107.708 2.097a6.6 6.6 0 0 0 3.227 2.938q1.036.435 2.156.507a6.55 6.55 0 0 0 2.3 3.286 6.6 6.6 0 0 0 1.79.964c.644.23 1.312.352 1.996.375a28.218 28.218 0 0 0-7.23 4.828 28.187 28.187 0 0 0-5.426 6.797 28.6 28.6 0 0 0-1.868 3.942 28.4 28.4 0 0 0-1.82 8.504 28.5 28.5 0 0 0 .09 4.36l-1.153 2.07q-1.218.826-2.336 1.78a27 27 0 0 0-2.128 2.016 27 27 0 0 0-1.903 2.23 29 29 0 0 0-1.656 2.427q-.762 1.255-1.383 2.586a26 26 0 0 0-1.101 2.718 27 27 0 0 0-1.309 5.711 28 28 0 0 0-.187 2.926q-.018 1.47.125 2.93.139 1.462.437 2.902c.2.957.445 1.906.742 2.836q.452 1.401 1.043 2.742a27.553 27.553 0 0 0 2.93 5.074q.866 1.184 1.855 2.274a77 77 0 0 0 3.778 12.172 30.3 30.3 0 0 0 2.07 7.773 30 30 0 0 0 1.785 3.613 30.5 30.5 0 0 0 2.25 3.344c.82 1.067 1.711 2.07 2.668 3.02a31 31 0 0 0 3.043 2.64 30.45 30.45 0 0 0 7 3.965 63 63 0 0 0 18.27 10.227 29.6 29.6 0 0 0 9.996 7.304 29.8 29.8 0 0 0 12.105 2.618h.363a29.7 29.7 0 0 0 12.106-2.618 29.6 29.6 0 0 0 5.383-3.125 30 30 0 0 0 4.617-4.18 63 63 0 0 0 18.27-10.226 30.506 30.506 0 0 0 6.996-3.965 30.627 30.627 0 0 0 5.715-5.66 30.5 30.5 0 0 0 5.324-10.773q.52-1.952.777-3.957a76.6 76.6 0 0 0 3.777-12.172 27.593 27.593 0 0 0 3.457-4.73q.735-1.274 1.328-2.618.599-1.341 1.043-2.742c.297-.93.547-1.879.743-2.836q.297-1.439.437-2.902.142-1.46.125-2.93a27 27 0 0 0-.187-2.926 28 28 0 0 0-.5-2.89 28 28 0 0 0-.805-2.82 28 28 0 0 0-1.102-2.72 28 28 0 0 0-3.039-5.011 28 28 0 0 0-4.035-4.246 27 27 0 0 0-2.332-1.782l-1.945-2.07q.181-2.137.047-4.281a29 29 0 0 0-.598-4.238 28.48 28.48 0 0 0-3.062-7.969 28 28 0 0 0-2.395-3.547 28 28 0 0 0-2.898-3.148 28.6 28.6 0 0 0-3.34-2.68 29 29 0 0 0-3.707-2.14 6.5 6.5 0 0 0 1.996-.376 6.566 6.566 0 0 0 4.09-4.25 6.588 6.588 0 0 0 4.02-1.7 6.6 6.6 0 0 0 2.07-3.843 8 8 0 0 0 3.3-2.781c.414-.61.738-1.258.973-1.953s.375-1.41.414-2.14a5.6 5.6 0 0 0 1.394-1.11c.407-.441.735-.938.989-1.48a5.68 5.68 0 0 0 .414-3.496q.75-.587 1.281-1.368a6 6 0 0 0 .8-1.691 6.044 6.044 0 0 0-.074-3.7q.387-.34.692-.746a5.1 5.1 0 0 0 1.027-2.832 5.054 5.054 0 0 0-.742-2.918 5 5 0 0 0-.613-.808c2.137-3.899 0-8.094-5.723-7.43a8.975 8.975 0 0 0-3.898-2.621 9 9 0 0 0-2.32-.465 9 9 0 0 0-2.368.16 5.1 5.1 0 0 0-1.16-1.043 5.4 5.4 0 0 0-1.414-.652 5.3 5.3 0 0 0-1.547-.207 5.2 5.2 0 0 0-1.539.258 6.8 6.8 0 0 0-1.742-1.055 6.8 6.8 0 0 0-5.926.328 6.6 6.6 0 0 0-1.887-.87 6.65 6.65 0 0 0-4.097.163 6.6 6.6 0 0 0-1.809 1.016 6.96 6.96 0 0 0-3.5-.3 7 7 0 0 0-1.691.523 7 7 0 0 0-1.508.93 6.87 6.87 0 0 0-4.344.44 6.86 6.86 0 0 0-3.203 2.965h-2.379a26.8 26.8 0 0 0-6.742 6.743 26.6 26.6 0 0 0-3.977 8.664 26.935 26.935 0 0 0-3.922-8.863 26.948 26.948 0 0 0-6.8-6.906h-2.38a6.908 6.908 0 0 0-3.273-2.758 7 7 0 0 0-2.113-.485 7 7 0 0 0-2.16.2 7 7 0 0 0-3.258-1.49 7 7 0 0 0-1.804-.065 7 7 0 0 0-1.762.402 14.7 14.7 0 0 0-4.688-1.527Zm0 0" style="stroke:none;fill-rule:nonzero;fill:#000;fill-opacity:1"/><path d="M52.219 23.887q18.015 8.15 32.27 21.855c-2.68 11.082-17.235 11.63-22.532 11.332 1.055-.344 1.824-1.011 2.316-2.008a60.6 60.6 0 0 1-9.312-1.941 3.03 3.03 0 0 0 1.43-.426 3.1 3.1 0 0 0 1.07-1.039 26.5 26.5 0 0 1-8.406-3.469 4.62 4.62 0 0 0 3.351-.726 32.4 32.4 0 0 1-8.039-4.996 5.96 5.96 0 0 0 3.406-.547 31 31 0 0 1-6.449-5.234c1.156.324 2.274.218 3.352-.305a25.6 25.6 0 0 1-5.543-6.09q.9.48 1.918.48c.68 0 1.316-.16 1.918-.48a32.7 32.7 0 0 1-5.051-6.086 7.96 7.96 0 0 0 3.59 0 16.85 16.85 0 0 0-3.227-6.086q4.11.3 8.219 0l-2.008-2.433c3.113-.57 6.14-.262 9.078.914 1.098-.852 0-1.942-1.402-3.043q3.92.491 7.613 1.89c1.157-1.097-.851-2.07-1.82-3.289a19.24 19.24 0 0 1 7.977 3.106c1.402-1.278 0-2.309-.79-3.407a19.3 19.3 0 0 1 6.696 4.325q.387-.298.62-.72c.161-.284.255-.585.29-.905a2.3 2.3 0 0 0-.09-.946 2.3 2.3 0 0 0-.457-.836 16.8 16.8 0 0 1 5.36 4.625q.708-.61.94-1.511a2.9 2.9 0 0 0-.085-1.778 53 53 0 0 1 6.086 6.086q.879-1.198.972-2.68c5.727 5.544 13.82 19.54 2.075 25.083A110 110 0 0 0 70.719 31.64a110 110 0 0 0-18.543-7.727Zm90.105 0c-12.012 5.433-22.765 12.718-32.27 21.855 2.801 11.082 17.235 11.63 22.532 11.332a3.82 3.82 0 0 1-2.07-2.07 60 60 0 0 0 9.312-1.945 3.04 3.04 0 0 1-1.394-.434 3.1 3.1 0 0 1-1.043-1.027 26.5 26.5 0 0 0 8.406-3.47 4.62 4.62 0 0 1-3.41-.726 32.4 32.4 0 0 0 8.039-4.996 5.96 5.96 0 0 1-3.406-.547 30.8 30.8 0 0 0 6.453-5.234 4.61 4.61 0 0 1-3.352-.305 25.7 25.7 0 0 0 5.54-6.09 4 4 0 0 1-1.915.48q-1.02 0-1.918-.48a32.7 32.7 0 0 0 5.05-6.085 7.96 7.96 0 0 1-3.589 0 16.8 16.8 0 0 1 3.227-6.086c-2.743.195-5.48.195-8.223 0l2.07-2.133c-3.113-.57-6.136-.262-9.074.914-1.098-.852 0-1.945 1.399-3.043a33 33 0 0 0-7.61 1.89c-1.402-1.398.543-2.308 1.578-3.535a19.2 19.2 0 0 0-7.976 3.11c-1.399-1.282 0-2.309.793-3.41a19.3 19.3 0 0 0-6.696 4.324 2.4 2.4 0 0 1-.64-.707 2.378 2.378 0 0 1 .21-2.7 16.85 16.85 0 0 0-5.359 4.626 2.94 2.94 0 0 1-.941-1.512 2.9 2.9 0 0 1 .09-1.778 53.3 53.3 0 0 0-6.09 6.086 5.03 5.03 0 0 1-.973-2.68c-5.722 5.544-13.816 19.544-2.07 25.083a110.4 110.4 0 0 1 16.715-10.942 110 110 0 0 1 18.418-7.746Zm0 0" style="stroke:none;fill-rule:nonzero;fill:#75a928;fill-opacity:1"/><path d="M117.852 136.938a19.5 19.5 0 0 1-.516 3.796 19.44 19.44 0 0 1-1.242 3.621 20 20 0 0 1-.88 1.707q-.485.828-1.042 1.61-.563.78-1.195 1.5-.64.719-1.336 1.375a20 20 0 0 1-1.465 1.238q-.763.585-1.578 1.09a20 20 0 0 1-3.438 1.691c-.601.227-1.207.422-1.828.586-.617.168-1.242.301-1.875.407-.629.105-1.266.18-1.902.222q-.962.06-1.918.031-.961.044-1.922-.007a20 20 0 0 1-1.914-.2 19.994 19.994 0 0 1-3.723-.945 20 20 0 0 1-3.465-1.656 21 21 0 0 1-1.593-1.074 19.464 19.464 0 0 1-2.836-2.594 18.91 18.91 0 0 1-2.273-3.09 19.6 19.6 0 0 1-1.634-3.476 21 21 0 0 1-.55-1.844 19 19 0 0 1-.368-1.887 20 20 0 0 1-.183-1.914 19.5 19.5 0 0 1 .515-3.797 19.44 19.44 0 0 1 1.242-3.621 19.506 19.506 0 0 1 4.453-6.191 20 20 0 0 1 1.466-1.239q.762-.585 1.578-1.09a19.5 19.5 0 0 1 3.437-1.69 19.568 19.568 0 0 1 7.523-1.246q.962-.044 1.922.007a19.74 19.74 0 0 1 9.098 2.8 20 20 0 0 1 3.078 2.301 19.5 19.5 0 0 1 2.567 2.856q.572.773 1.062 1.601c.328.555.63 1.118.903 1.7.27.582.515 1.175.726 1.78.215.602.399 1.22.555 1.84q.227.932.367 1.887.136.952.184 1.915m-32.153-53.57q.764.606 1.469 1.284.697.679 1.336 1.422.632.74 1.187 1.543.562.802 1.036 1.653.48.849.87 1.746a20.1 20.1 0 0 1 1.637 9.52q-.075.972-.238 1.933c-.113.64-.254 1.277-.426 1.902a19 19 0 0 1-.61 1.856 20.1 20.1 0 0 1-1.738 3.484c-.347.55-.718 1.086-1.117 1.598-.316.57-.664 1.125-1.035 1.664a21 21 0 0 1-1.195 1.55q-.633.75-1.336 1.43a20.2 20.2 0 0 1-8.383 4.89q-.939.275-1.902.462c-.64.12-1.29.21-1.942.273q-.972.088-1.957.082a19 19 0 0 1-1.953-.101 21.073 21.073 0 0 1-3.836-.773 20 20 0 0 1-1.843-.665 20 20 0 0 1-1.774-.836A20 20 0 0 1 60.484 118a19.846 19.846 0 0 1-2.527-2.965 19 19 0 0 1-1.035-1.652q-.48-.85-.871-1.746a20 20 0 0 1-1.211-3.7q-.21-.955-.328-1.921a20 20 0 0 1-.145-1.946 20.3 20.3 0 0 1 .711-5.789c.176-.629.375-1.246.61-1.855q.351-.91.785-1.781a19.6 19.6 0 0 1 2.07-3.301q.478-.856 1.039-1.66a20 20 0 0 1 2.531-2.985 20 20 0 0 1 1.469-1.297q.767-.61 1.59-1.144.82-.533 1.691-.988.868-.453 1.778-.817c.609-.246 1.222-.457 1.851-.64a19 19 0 0 1 1.903-.461 19 19 0 0 1 1.94-.274q.98-.093 1.958-.086a20.5 20.5 0 0 1 3.89.399q.962.194 1.899.48.942.284 1.844.66.907.374 1.773.836m22.774-1.036q-.762.607-1.465 1.285a20 20 0 0 0-2.528 2.965 20.2 20.2 0 0 0-2.601 5.219 19.737 19.737 0 0 0-.844 3.805 19 19 0 0 0-.144 1.945q-.025.971.05 1.949.07.972.235 1.934c.113.64.254 1.277.426 1.902q.257.942.609 1.855a20.1 20.1 0 0 0 1.738 3.484q.521.827 1.117 1.598a20.4 20.4 0 0 0 2.23 3.215q.634.75 1.337 1.43.706.684 1.472 1.297.768.61 1.586 1.144.825.533 1.696.989.868.452 1.777.816a19.818 19.818 0 0 0 3.754 1.102c.644.125 1.289.214 1.941.277a20.4 20.4 0 0 0 7.746-.797c.625-.187 1.243-.41 1.844-.66q.908-.374 1.774-.836c.507-.402 1-.832 1.464-1.285a19.847 19.847 0 0 0 2.527-2.965 20.2 20.2 0 0 0 2.602-5.219q.305-.927.516-1.883.21-.949.332-1.921a20 20 0 0 0 .14-1.942q.024-.976-.05-1.95a20 20 0 0 0-.234-1.937 21 21 0 0 0-.426-1.902 19 19 0 0 0-.61-1.855q-.345-.908-.785-1.786a20 20 0 0 0-.953-1.699 21 21 0 0 0-1.117-1.597q-.48-.855-1.035-1.664a21 21 0 0 0-1.196-1.551q-.632-.75-1.335-1.43c-.473-.457-.961-.887-1.473-1.297a21 21 0 0 0-1.586-1.144 22 22 0 0 0-1.695-.989q-.869-.451-1.778-.816a19.818 19.818 0 0 0-3.754-1.102 19 19 0 0 0-1.941-.273q-.972-.093-1.957-.086a20.4 20.4 0 0 0-3.89.398q-.961.195-1.9.48c-.624.188-1.241.411-1.843.661q-.907.374-1.773.836M43.578 92.496c9.129-2.433 3.043 37.684-4.324 34.395a21.7 21.7 0 0 1-4.402-6.067 21 21 0 0 1-.97-2.312 21 21 0 0 1-.694-2.414 20 20 0 0 1-.41-2.473 21.5 21.5 0 0 1 .5-7.48c.199-.813.449-1.61.738-2.395q.441-1.177 1.011-2.297a21.8 21.8 0 0 1 2.782-4.168 21 21 0 0 1 1.734-1.816 22 22 0 0 1 1.93-1.602 22 22 0 0 1 2.105-1.37m105.207-.605c-9.133-2.438-3.047 37.68 4.324 34.39q.904-.874 1.696-1.847a22 22 0 0 0 1.476-2.028q.68-1.061 1.23-2.187a21.478 21.478 0 0 0 1.66-4.727 21.4 21.4 0 0 0 .536-4.984 21.5 21.5 0 0 0-.625-4.969q-.3-1.222-.738-2.398a21.773 21.773 0 0 0-3.793-6.465 21.8 21.8 0 0 0-3.664-3.418 22 22 0 0 0-2.102-1.367m-30.93-29.829c15.711-2.675 28.801 6.696 28.254 23.747-.488 6.695-33.851-22.829-28.254-23.746m-43.492-.488c-15.707-2.68-28.8 6.696-28.254 23.746.493 6.504 34.036-22.765 28.254-23.746m22.602-3.953c-9.375 0-18.192 6.941-18.192 11.137 0 4.199 7.43 10.285 18.192 10.41 10.762.129 18.191-4.14 18.191-9.371 0-5.234-10.285-12.176-18.57-12.176Zm.61 104.031c8.155-.363 19.112 2.618 19.171 6.578.055 3.961-9.922 12.543-19.734 12.172-9.809-.37-20.032-8.273-19.907-11.332 0-4.441 12.176-7.906 20.461-7.668Zm-30.208-23.504c6.086 6.997 8.395 19.356 3.59 22.946-4.809 3.59-15.773 1.644-23.687-9.739-5.293-9.62-4.618-19.292-.852-22.343 5.598-3.41 14.309 1.215 21.004 8.953Zm59.25-2.238c-6.086 7.367-9.797 20.82-5.234 25.14 4.387 3.36 16.199 2.927 24.91-9.19a23.095 23.095 0 0 0 3.738-9.219 23 23 0 0 0 .16-6.657 23.4 23.4 0 0 0-1.742-6.43 23 23 0 0 0-1.547-2.956c-5.359-4.145-13.086 1.152-20.277 9.304Zm0 0" style="stroke:none;fill-rule:nonzero;fill:#bc1142;fill-opacity:1"/></svg>